HIERARCHY
ROOT newVegas:Hips
{
	OFFSET 0.000000 96.479958 0.000000
	CHANNELS 6 Xposition Yposition Zposition Xrotation Yrotation Zrotation
	JOINT newVegas:Pelvis
	{
		OFFSET 0.000000 0.000000 0.000000
		CHANNELS 3 Xrotation Yrotation Zrotation
		JOINT newVegas:LeftUpLeg
		{
			OFFSET 18.735201 -5.666702 -4.541200
			CHANNELS 3 Xrotation Yrotation Zrotation
			JOINT newVegas:LeftLeg
			{
				OFFSET -0.021200 -31.938179 0.493100
				CHANNELS 3 Xrotation Yrotation Zrotation
				JOINT newVegas:LeftFoot
				{
					OFFSET 0.021200 -31.938179 -4.336299
					CHANNELS 3 Xrotation Yrotation Zrotation
					JOINT newVegas:LeftToeBase
					{
						OFFSET 0.943001 -26.722000 15.023500
						CHANNELS 3 Xrotation Yrotation Zrotation
						End Site
						{
							OFFSET 0.000000 30.670183 0.000000
						}
					}
				}
				JOINT newVegas:Left_PantLeg
				{
					OFFSET 0.663870 -9.044666 -1.108900
					CHANNELS 3 Xrotation Yrotation Zrotation
					End Site
					{
						OFFSET 1.415995 20.635357 0.000000
					}
				}
			}
		}
		JOINT newVegas:RightUpLeg
		{
			OFFSET -18.735201 -5.666702 -4.541200
			CHANNELS 3 Xrotation Yrotation Zrotation
			JOINT newVegas:RightLeg
			{
				OFFSET 0.018946 -31.938133 0.493100
				CHANNELS 3 Xrotation Yrotation Zrotation
				JOINT newVegas:RightFoot
				{
					OFFSET -0.018946 -31.938126 -4.336299
					CHANNELS 3 Xrotation Yrotation Zrotation
					JOINT newVegas:RightToeBase
					{
						OFFSET -0.943001 -26.722004 15.023500
						CHANNELS 3 Xrotation Yrotation Zrotation
						End Site
						{
							OFFSET 0.000000 30.670187 0.000000
						}
					}
				}
				JOINT newVegas:Right_PantLeg
				{
					OFFSET -0.661674 -9.044716 -1.108900
					CHANNELS 3 Xrotation Yrotation Zrotation
					End Site
					{
						OFFSET -1.415958 20.635269 0.000000
					}
				}
			}
		}
	}
	JOINT newVegas:Spine
	{
		OFFSET 0.000000 10.199997 -0.299500
		CHANNELS 3 Xrotation Yrotation Zrotation
		JOINT newVegas:Spine1
		{
			OFFSET 0.000000 11.900002 -1.516600
			CHANNELS 3 Xrotation Yrotation Zrotation
			JOINT newVegas:Spine2
			{
				OFFSET 0.000000 13.600006 -2.842500
				CHANNELS 3 Xrotation Yrotation Zrotation
				JOINT newVegas:Neck
				{
					OFFSET 0.000000 9.624100 -2.890100
					CHANNELS 3 Xrotation Yrotation Zrotation
					JOINT newVegas:Head
					{
						OFFSET 0.000000 14.068802 -1.351900
						CHANNELS 3 Xrotation Yrotation Zrotation
						JOINT newVegas:Hair_Back
						{
							OFFSET 0.000000 3.231903 -17.524799
							CHANNELS 3 Xrotation Yrotation Zrotation
							End Site
							{
								OFFSET 0.000000 19.849884 0.000000
							}
						}
						JOINT newVegas:Hair_Front
						{
							OFFSET 0.000000 31.260406 4.573800
							CHANNELS 3 Xrotation Yrotation Zrotation
							JOINT newVegas:Hair_Front1
							{
								OFFSET 0.000000 2.284103 11.993300
								CHANNELS 3 Xrotation Yrotation Zrotation
								JOINT newVegas:Hair_Front2
								{
									OFFSET 0.000000 2.284103 11.993300
									CHANNELS 3 Xrotation Yrotation Zrotation
									End Site
									{
										OFFSET 0.000000 12.208862 0.000000
									}
								}
							}
						}
						JOINT newVegas:Jowel
						{
							OFFSET 0.000000 -7.458206 6.864100
							CHANNELS 3 Xrotation Yrotation Zrotation
							End Site
							{
								OFFSET 0.000000 19.849884 0.000000
							}
						}
					}
				}
				JOINT newVegas:LeftShoulder
				{
					OFFSET 15.263000 10.923401 -0.547700
					CHANNELS 3 Xrotation Yrotation Zrotation
					JOINT newVegas:LeftArm
					{
						OFFSET 25.438599 -2.830597 -13.032500
						CHANNELS 3 Xrotation Yrotation Zrotation
						JOINT newVegas:LeftForeArm
						{
							OFFSET 29.960503 0.000000 0.000000
							CHANNELS 3 Xrotation Yrotation Zrotation
							JOINT newVegas:LeftHand
							{
								OFFSET 27.849251 0.000000 0.000000
								CHANNELS 3 Xrotation Yrotation Zrotation
								JOINT newVegas:LeftHandThumb1
								{
									OFFSET 4.487587 -3.305161 6.305391
									CHANNELS 3 Xrotation Yrotation Zrotation
									JOINT newVegas:LeftHandThumb2
									{
										OFFSET 5.480453 -3.164139 3.164143
										CHANNELS 3 Xrotation Yrotation Zrotation
										JOINT newVegas:LeftHandThumb3
										{
											OFFSET 5.159721 -2.978973 2.978967
											CHANNELS 3 Xrotation Yrotation Zrotation
											End Site
											{
												OFFSET 2.494507 5.926697 1.738678
											}
										}
									}
								}
								JOINT newVegas:LeftHandIndex1
								{
									OFFSET 18.578728 -0.527832 5.208049
									CHANNELS 3 Xrotation Yrotation Zrotation
									JOINT newVegas:LeftHandIndex2
									{
										OFFSET 3.192009 0.000000 0.000000
										CHANNELS 3 Xrotation Yrotation Zrotation
										JOINT newVegas:LeftHandIndex3
										{
											OFFSET 3.835129 0.000000 0.000000
											CHANNELS 3 Xrotation Yrotation Zrotation
											End Site
											{
												OFFSET -0.034599 3.816971 0.371180
											}
										}
									}
								}
								JOINT newVegas:LeftHandMiddle1
								{
									OFFSET 18.476105 0.000000 0.000000
									CHANNELS 3 Xrotation Yrotation Zrotation
									JOINT newVegas:LeftHandMiddle2
									{
										OFFSET 3.324875 0.000000 0.000000
										CHANNELS 3 Xrotation Yrotation Zrotation
										JOINT newVegas:LeftHandMiddle3
										{
											OFFSET 4.596550 0.000000 0.000000
											CHANNELS 3 Xrotation Yrotation Zrotation
											End Site
											{
												OFFSET 0.057701 4.578827 0.399218
											}
										}
									}
								}
								JOINT newVegas:LeftHandRing1
								{
									OFFSET 17.732719 0.121887 -4.201567
									CHANNELS 3 Xrotation Yrotation Zrotation
									JOINT newVegas:LeftHandRing2
									{
										OFFSET 2.733170 0.000000 0.000000
										CHANNELS 3 Xrotation Yrotation Zrotation
										JOINT newVegas:LeftHandRing3
										{
											OFFSET 3.178268 0.000000 0.000000
											CHANNELS 3 Xrotation Yrotation Zrotation
											End Site
											{
												OFFSET 0.119102 3.170624 0.185394
											}
										}
									}
								}
								JOINT newVegas:LeftHandPinky1
								{
									OFFSET 15.989624 -0.606689 -7.535461
									CHANNELS 3 Xrotation Yrotation Zrotation
									JOINT newVegas:LeftHandPinky2
									{
										OFFSET 2.538986 0.000000 0.000000
										CHANNELS 3 Xrotation Yrotation Zrotation
										JOINT newVegas:LeftHandPinky3
										{
											OFFSET 2.593102 0.000000 0.000000
											CHANNELS 3 Xrotation Yrotation Zrotation
											End Site
											{
												OFFSET -0.150902 2.584198 0.152708
											}
										}
									}
								}
							}
							JOINT newVegas:Left_Sleeve
							{
								OFFSET 0.267448 -0.649796 0.577675
								CHANNELS 3 Xrotation Yrotation Zrotation
								End Site
								{
									OFFSET 0.000000 15.991241 0.000000
								}
							}
							JOINT newVegas:Left_CapeC
							{
								OFFSET 15.715958 -8.608795 -6.935905
								CHANNELS 3 Xrotation Yrotation Zrotation
								JOINT newVegas:Left_CapeC1
								{
									OFFSET 0.000000 -8.688499 0.000000
									CHANNELS 3 Xrotation Yrotation Zrotation
									End Site
									{
										OFFSET 0.000000 8.688499 0.000000
									}
								}
							}
						}
						JOINT newVegas:Left_CapeB
						{
							OFFSET 26.118385 -8.608795 -7.079235
							CHANNELS 3 Xrotation Yrotation Zrotation
							JOINT newVegas:Left_CapeB1
							{
								OFFSET 0.000000 -8.688499 0.000000
								CHANNELS 3 Xrotation Yrotation Zrotation
								End Site
								{
									OFFSET 0.000000 8.688499 0.000000
								}
							}
						}
						JOINT newVegas:Left_CapeA
						{
							OFFSET 5.115639 -8.608795 -10.395809
							CHANNELS 3 Xrotation Yrotation Zrotation
							JOINT newVegas:Left_CapeA1
							{
								OFFSET 0.000000 -8.688499 0.000000
								CHANNELS 3 Xrotation Yrotation Zrotation
								End Site
								{
									OFFSET 0.000000 8.688499 0.000000
								}
							}
						}
					}
				}
				JOINT newVegas:RightShoulder
				{
					OFFSET -15.263000 10.923401 -0.547700
					CHANNELS 3 Xrotation Yrotation Zrotation
					JOINT newVegas:RightArm
					{
						OFFSET -25.438599 -2.830597 -13.032500
						CHANNELS 3 Xrotation Yrotation Zrotation
						JOINT newVegas:RightForeArm
						{
							OFFSET -29.960503 0.000000 0.000000
							CHANNELS 3 Xrotation Yrotation Zrotation
							JOINT newVegas:RightHand
							{
								OFFSET -27.849251 0.000000 0.000000
								CHANNELS 3 Xrotation Yrotation Zrotation
								JOINT newVegas:RightHandThumb1
								{
									OFFSET -4.487587 -3.305161 6.305391
									CHANNELS 3 Xrotation Yrotation Zrotation
									JOINT newVegas:RightHandThumb2
									{
										OFFSET -5.480453 -3.164139 3.164143
										CHANNELS 3 Xrotation Yrotation Zrotation
										JOINT newVegas:RightHandThumb3
										{
											OFFSET -5.159721 -2.978973 2.978967
											CHANNELS 3 Xrotation Yrotation Zrotation
											End Site
											{
												OFFSET -2.494507 5.926697 1.738678
											}
										}
									}
								}
								JOINT newVegas:RightHandIndex1
								{
									OFFSET -18.578728 -0.527832 5.208049
									CHANNELS 3 Xrotation Yrotation Zrotation
									JOINT newVegas:RightHandIndex2
									{
										OFFSET -3.192009 0.000000 0.000000
										CHANNELS 3 Xrotation Yrotation Zrotation
										JOINT newVegas:RightHandIndex3
										{
											OFFSET -3.835129 0.000000 0.000000
											CHANNELS 3 Xrotation Yrotation Zrotation
											End Site
											{
												OFFSET 0.034599 3.816971 0.371180
											}
										}
									}
								}
								JOINT newVegas:RightHandMiddle1
								{
									OFFSET -18.476105 0.000000 0.000000
									CHANNELS 3 Xrotation Yrotation Zrotation
									JOINT newVegas:RightHandMiddle2
									{
										OFFSET -3.324875 0.000000 0.000000
										CHANNELS 3 Xrotation Yrotation Zrotation
										JOINT newVegas:RightHandMiddle3
										{
											OFFSET -4.596550 0.000000 0.000000
											CHANNELS 3 Xrotation Yrotation Zrotation
											End Site
											{
												OFFSET -0.057701 4.578827 0.399218
											}
										}
									}
								}
								JOINT newVegas:RightHandRing1
								{
									OFFSET -17.732719 0.121887 -4.201567
									CHANNELS 3 Xrotation Yrotation Zrotation
									JOINT newVegas:RightHandRing2
									{
										OFFSET -2.733170 0.000000 0.000000
										CHANNELS 3 Xrotation Yrotation Zrotation
										JOINT newVegas:RightHandRing3
										{
											OFFSET -3.178268 0.000000 0.000000
											CHANNELS 3 Xrotation Yrotation Zrotation
											End Site
											{
												OFFSET -0.119102 3.170624 0.185394
											}
										}
									}
								}
								JOINT newVegas:RightHandPinky1
								{
									OFFSET -15.989624 -0.606689 -7.535461
									CHANNELS 3 Xrotation Yrotation Zrotation
									JOINT newVegas:RightHandPinky2
									{
										OFFSET -2.538986 0.000000 0.000000
										CHANNELS 3 Xrotation Yrotation Zrotation
										JOINT newVegas:RightHandPinky3
										{
											OFFSET -2.593102 0.000000 0.000000
											CHANNELS 3 Xrotation Yrotation Zrotation
											End Site
											{
												OFFSET 0.150902 2.584198 0.152708
											}
										}
									}
								}
							}
							JOINT newVegas:Right_CapeC
							{
								OFFSET -15.715958 -8.608795 -6.935905
								CHANNELS 3 Xrotation Yrotation Zrotation
								JOINT newVegas:Right_CapeC1
								{
									OFFSET 0.000000 -8.688499 0.000000
									CHANNELS 3 Xrotation Yrotation Zrotation
									End Site
									{
										OFFSET 0.000000 8.688499 0.000000
									}
								}
							}
							JOINT newVegas:Right_Sleeve
							{
								OFFSET -0.267448 -0.649994 0.577675
								CHANNELS 3 Xrotation Yrotation Zrotation
								End Site
								{
									OFFSET 0.000000 15.991302 0.000000
								}
							}
						}
						JOINT newVegas:Right_CapeA
						{
							OFFSET -5.115540 -8.608795 -10.395824
							CHANNELS 3 Xrotation Yrotation Zrotation
							JOINT newVegas:Right_CapeA1
							{
								OFFSET 0.000000 -8.688499 0.000000
								CHANNELS 3 Xrotation Yrotation Zrotation
								End Site
								{
									OFFSET 0.000000 8.688499 0.000000
								}
							}
						}
						JOINT newVegas:Right_CapeB
						{
							OFFSET -26.118187 -8.608795 -7.079266
							CHANNELS 3 Xrotation Yrotation Zrotation
							JOINT newVegas:Right_CapeB1
							{
								OFFSET 0.000000 -8.688499 0.000000
								CHANNELS 3 Xrotation Yrotation Zrotation
								End Site
								{
									OFFSET 0.000000 8.688499 0.000000
								}
							}
						}
					}
				}
				JOINT newVegas:Left_Collar
				{
					OFFSET 18.625099 8.655502 8.828100
					CHANNELS 3 Xrotation Yrotation Zrotation
					JOINT newVegas:Left_Collar1
					{
						OFFSET 14.783401 10.540405 -1.259500
						CHANNELS 3 Xrotation Yrotation Zrotation
						End Site
						{
							OFFSET 0.000000 18.199875 0.000000
						}
					}
				}
				JOINT newVegas:Collar_Back
				{
					OFFSET 0.000000 15.630707 -20.132601
					CHANNELS 3 Xrotation Yrotation Zrotation
					End Site
					{
						OFFSET 0.000000 22.523010 0.000000
					}
				}
				JOINT newVegas:Left_Peck
				{
					OFFSET 17.239599 -5.132599 25.482599
					CHANNELS 3 Xrotation Yrotation Zrotation
					End Site
					{
						OFFSET 0.000000 22.523010 0.000000
					}
				}
				JOINT newVegas:Right_Peck
				{
					OFFSET -17.239599 -5.132202 25.482599
					CHANNELS 3 Xrotation Yrotation Zrotation
					End Site
					{
						OFFSET 0.000000 22.523010 0.000000
					}
				}
				JOINT newVegas:Right_Collar
				{
					OFFSET -18.625099 8.655792 8.828100
					CHANNELS 3 Xrotation Yrotation Zrotation
					JOINT newVegas:Right_Collar1
					{
						OFFSET -14.783401 10.539993 -1.259500
						CHANNELS 3 Xrotation Yrotation Zrotation
						End Site
						{
							OFFSET 0.000000 18.199631 0.000000
						}
					}
				}
			}
		}
		JOINT newVegas:Belly
		{
			OFFSET 0.000000 -6.540398 9.014299
			CHANNELS 3 Xrotation Yrotation Zrotation
			End Site
			{
				OFFSET 0.000000 11.566666 0.000000
			}
		}
	}
	JOINT newVegas:ElvisFacialAnim_Joint
	{
		OFFSET 1.000000 -95.330101 -8.825800
		CHANNELS 3 Xrotation Yrotation Zrotation
		End Site
		{
			OFFSET 0.000000 35.315800 0.000000
		}
	}
}
MOTION
Frames: 4
Frame Time: 0.033333
-1.228300 82.796219 115.845680 21.115004 -67.873482 18.194818 -0.000000 -0.000000 0.000000 -23.898359 21.950577 -10.066784 58.727701 -8.073122 -3.397457 -21.390547 -12.375748 -3.931959 -0.000001 -0.000001 -0.000000 0.000002 -0.000002 -0.000000 -49.303505 -16.010093 20.077145 33.652550 4.531010 -0.625232 17.276106 3.164848 -17.468931 -0.000000 -0.000001 -0.000000 0.000001 0.000002 0.000001 17.825371 -2.704807 -2.219659 6.675994 -0.466105 -2.235961 6.667028 -0.402153 -2.310961 -0.881628 0.581278 0.771223 -0.881587 0.581275 0.771207 0.000001 0.000002 -0.000000 -0.881569 0.581223 0.771235 -0.881595 0.581394 0.771204 -0.000000 -0.000000 0.000001 0.000001 0.000002 -0.000000 1.194158 -3.683028 -9.896364 -41.094707 33.505626 -38.424257 0.501658 -42.282716 0.360972 -11.254770 -8.644086 -0.618681 40.109914 -15.297138 -0.360494 5.639809 28.097846 11.338805 0.000001 -0.000003 -0.000003 6.882263 2.840022 -61.140411 8.247999 7.640057 -89.897830 -0.000004 -0.000001 0.000001 -2.345564 4.688825 -62.655258 8.754152 9.897138 -87.051321 0.000003 -0.000000 0.000000 -9.042503 10.045685 -60.766192 8.524109 9.508802 -66.893083 -0.000001 0.000001 -0.000000 -17.946964 14.755058 -51.485881 8.868478 8.667009 -84.812009 -0.000000 0.000000 0.000002 -0.000001 0.000000 -0.000003 -0.000001 0.000000 -0.000003 -0.000002 0.000000 -0.000003 0.000001 0.000000 -0.000001 0.000001 -0.000001 -0.000004 0.000001 0.000000 -0.000001 0.000000 0.000000 -0.000002 2.265859 10.098816 5.853190 4.286543 -11.378281 50.108382 -23.019138 33.249566 17.360439 -29.454081 8.519281 -22.995953 -2.346180 -6.100490 10.731443 2.364037 -23.806339 -8.771085 0.000001 0.000001 0.000001 -0.261614 -0.417806 3.615013 0.076424 -0.559432 8.349811 -0.000000 -0.000000 0.000002 0.423026 -6.314936 5.212020 1.616660 -4.590730 26.927065 0.000000 0.000002 -0.000001 1.640061 -11.615898 6.584888 2.006071 -4.121392 29.425544 -0.000001 0.000001 -0.000001 2.651057 -19.021390 13.783913 3.492778 -2.379830 21.166517 0.000001 0.000003 -0.000000 -0.000001 0.000000 0.000002 0.000000 0.000001 0.000004 0.000000 0.000002 0.000004 -0.000001 -0.000003 -0.000004 -0.000001 -0.000002 -0.000003 -0.000001 -0.000003 -0.000004 -0.000001 -0.000002 -0.000001 0.000004 0.000001 -0.000002 0.000004 0.000001 -0.000002 0.000004 0.000001 -0.000002 0.000004 0.000001 -0.000002 0.000004 0.000001 -0.000002 0.000004 0.000001 -0.000002 0.000004 0.000001 -0.000002 -0.000001 -0.000001 0.000001 -0.000000 -0.000000 0.000000 
-1.160585 80.903244 118.298645 22.136044 -68.708397 17.531578 0.000001 0.000000 -0.000000 -33.242555 18.602247 -0.570536 59.581974 -9.227201 -3.657627 -4.755447 -16.527731 -30.253988 0.000000 0.000003 -0.000002 0.000003 0.000001 0.000002 -53.076580 -16.858066 20.430131 41.616950 3.245714 -0.961964 12.740009 3.746853 -18.515881 0.000000 0.000001 -0.000000 0.000000 0.000001 -0.000002 17.557522 -1.552901 -1.158780 6.526394 -0.207374 -2.352532 6.532428 -0.180341 -2.432445 -0.824890 0.543033 0.790846 -0.824895 0.543024 0.790849 -0.000000 0.000000 -0.000000 -0.824965 0.543012 0.790863 -0.824814 0.543043 0.790849 0.000000 0.000001 -0.000002 -0.000000 0.000000 0.000000 1.319210 -3.717965 -10.424551 -40.813748 33.011858 -37.751398 0.491715 -42.957170 0.366529 -11.311493 -7.407602 -0.606382 40.109920 -15.297143 -0.360500 5.639815 28.097850 11.338799 0.000002 -0.000002 -0.000003 6.882260 2.840027 -61.140411 8.247997 7.640056 -89.897837 0.000002 -0.000002 0.000001 -2.345565 4.688828 -62.655258 8.754148 9.897137 -87.051328 0.000001 0.000001 0.000002 -9.042505 10.045691 -60.766199 8.524109 9.508802 -66.893083 -0.000001 -0.000001 -0.000000 -17.946964 14.755063 -51.485887 8.868476 8.667011 -84.812003 0.000003 0.000000 -0.000001 -0.000002 0.000001 -0.000001 -0.000002 0.000001 -0.000001 -0.000003 0.000002 -0.000001 0.000000 -0.000001 -0.000001 0.000001 -0.000001 -0.000004 0.000000 -0.000001 -0.000001 -0.000001 0.000000 -0.000001 2.077578 9.616135 6.047808 4.842479 -10.660248 50.298602 -23.294241 34.219634 17.866491 -28.919287 8.566525 -22.379958 -2.346181 -6.100489 10.731444 2.364031 -23.806343 -8.771088 0.000001 0.000003 -0.000006 -0.212456 -0.160608 2.833579 0.058584 -0.433005 7.471292 0.000001 0.000001 -0.000001 0.402855 -6.205998 4.488255 1.564548 -4.486262 26.144982 0.000000 0.000001 -0.000002 1.521654 -11.657473 5.910025 1.947259 -4.026478 28.725248 -0.000001 0.000002 0.000002 2.504473 -19.065686 13.114163 3.455136 -2.310006 20.530790 -0.000002 0.000001 0.000002 -0.000003 -0.000001 0.000001 -0.000001 -0.000001 0.000003 -0.000001 0.000000 0.000002 -0.000003 0.000001 -0.000002 -0.000003 0.000002 -0.000000 -0.000003 0.000001 -0.000002 -0.000003 0.000002 0.000002 0.000003 0.000001 0.000001 0.000003 0.000001 0.000001 0.000003 0.000001 0.000001 0.000003 0.000001 0.000001 0.000003 0.000001 0.000001 0.000003 0.000001 0.000001 0.000003 0.000001 0.000001 -0.000000 0.000001 -0.000000 0.000001 0.000000 -0.000000 
-1.420124 81.160851 121.554520 22.783821 -68.624427 17.757380 0.000000 0.000002 -0.000000 -37.952629 16.794667 3.471714 60.193665 -6.875704 -3.400519 6.827963 -18.291633 -34.379542 -0.000001 -0.000000 0.000001 -0.000004 0.000001 -0.000000 -54.728820 -15.161932 18.642491 46.019974 2.466624 -1.110655 8.182081 3.808125 -16.398651 0.000000 0.000002 0.000000 -0.000000 0.000002 -0.000001 17.160070 -1.065647 -1.348403 6.364754 -0.051874 -2.369020 6.383051 -0.030128 -2.439245 -0.778203 0.514002 0.774568 -0.778207 0.513993 0.774567 -0.000001 -0.000000 -0.000000 -0.778082 0.514034 0.774552 -0.778393 0.514002 0.774569 -0.000000 -0.000000 -0.000000 -0.000001 -0.000000 -0.000000 1.443942 -3.711629 -10.950864 -40.461771 32.033884 -37.123936 0.481135 -43.726181 0.372937 -11.325786 -6.022400 -0.538426 40.109914 -15.297143 -0.360493 5.639814 28.097850 11.338798 -0.000000 -0.000003 -0.000001 6.882259 2.840030 -61.140411 8.247997 7.640050 -89.897830 -0.000003 -0.000002 0.000000 -2.345571 4.688826 -62.655258 8.754151 9.897140 -87.051321 0.000004 0.000001 0.000003 -9.042505 10.045684 -60.766199 8.524109 9.508808 -66.893083 0.000001 0.000003 -0.000001 -17.946966 14.755070 -51.485887 8.868476 8.667017 -84.811996 -0.000001 -0.000002 0.000002 0.000002 0.000002 -0.000002 0.000002 0.000002 -0.000002 0.000001 0.000003 -0.000002 -0.000002 0.000001 0.000002 -0.000002 0.000000 -0.000000 -0.000002 0.000001 0.000002 -0.000003 0.000001 0.000002 1.844529 9.132704 6.372942 5.493458 -10.235475 50.668573 -23.497210 35.117981 18.265307 -28.539829 8.675221 -21.726972 -2.346182 -6.100492 10.731449 2.364036 -23.806337 -8.771091 0.000001 -0.000002 -0.000001 -0.165211 0.068670 2.138506 0.042475 -0.319685 6.684259 -0.000001 0.000001 0.000004 0.386228 -6.109611 3.849589 1.519516 -4.393000 25.451293 0.000000 -0.000000 -0.000002 1.417404 -11.692820 5.317987 1.896416 -3.942389 28.108861 -0.000000 0.000001 -0.000001 2.375511 -19.102726 12.529502 3.422817 -2.248550 19.974405 0.000001 -0.000000 0.000000 0.000002 0.000001 0.000002 -0.000000 0.000001 0.000004 0.000001 0.000002 0.000004 0.000001 0.000001 -0.000001 0.000001 0.000002 -0.000003 0.000001 0.000001 -0.000001 0.000001 0.000002 -0.000001 0.000005 0.000001 -0.000001 0.000005 0.000001 -0.000001 0.000005 0.000001 -0.000001 0.000005 0.000001 -0.000001 0.000005 0.000001 -0.000001 0.000005 0.000001 -0.000001 0.000005 0.000001 -0.000001 0.000002 0.000001 -0.000000 0.000000 0.000002 -0.000000 
-1.750524 82.878723 124.954666 23.111572 -68.168635 18.373909 -0.000001 0.000001 0.000000 -45.057385 14.799203 7.433472 71.112228 -7.776885 -3.726370 7.495129 -9.000529 -26.941167 -0.000001 0.000001 -0.000000 -0.000000 -0.000003 0.000003 -53.352547 -11.930243 16.608720 45.875601 1.725233 -1.128953 4.639415 3.098196 -14.122654 -0.000000 -0.000002 -0.000000 -0.000000 -0.000001 -0.000002 16.703240 -0.945024 -2.259490 6.224797 0.109222 -2.392770 6.249911 0.137710 -2.455730 -0.768485 0.478068 0.759674 -0.768464 0.478093 0.759649 -0.000002 -0.000001 -0.000000 -0.768520 0.478039 0.759676 -0.768373 0.478158 0.759654 -0.000001 0.000000 -0.000000 -0.000002 -0.000001 0.000000 1.567129 -3.640854 -11.436413 -40.065207 30.710255 -36.531489 0.468463 -44.630362 0.381245 -11.279284 -4.467541 -0.384658 40.109917 -15.297138 -0.360492 5.639809 28.097844 11.338806 0.000002 -0.000002 -0.000003 6.882258 2.840021 -61.140404 8.247996 7.640057 -89.897830 -0.000001 -0.000002 -0.000001 -2.345568 4.688822 -62.655258 8.754154 9.897134 -87.051328 0.000005 0.000001 0.000001 -9.042505 10.045681 -60.766192 8.524105 9.508809 -66.893083 -0.000003 -0.000001 0.000001 -17.946964 14.755058 -51.485881 8.868477 8.667012 -84.812009 -0.000004 0.000000 -0.000001 -0.000001 -0.000003 0.000002 -0.000001 -0.000003 0.000002 -0.000002 -0.000002 0.000002 0.000001 0.000001 0.000000 0.000002 0.000000 -0.000001 0.000001 0.000001 0.000000 0.000001 0.000001 0.000000 1.575432 8.652259 6.815098 6.245498 -10.023046 51.183392 -23.627557 35.933714 18.591560 -28.287980 8.844128 -21.067725 -2.346180 -6.100492 10.731448 2.364039 -23.806341 -8.771091 0.000002 -0.000001 -0.000002 -0.122923 0.261719 1.554686 0.029457 -0.223838 6.019095 -0.000000 -0.000001 -0.000002 0.373167 -6.029066 3.316781 1.482658 -4.314473 24.869960 -0.000001 0.000000 -0.000001 1.330677 -11.721360 4.826676 1.854763 -3.871884 27.595508 -0.000001 0.000002 0.000002 2.268229 -19.132238 12.046318 3.396496 -2.197458 19.513494 0.000000 0.000000 -0.000003 -0.000001 0.000001 0.000002 0.000001 0.000001 0.000005 -0.000001 0.000001 0.000003 0.000003 0.000001 0.000003 0.000003 0.000002 0.000002 0.000003 0.000001 0.000003 0.000003 0.000002 0.000003 -0.000001 0.000001 -0.000001 -0.000001 0.000001 -0.000001 -0.000001 0.000001 -0.000001 -0.000001 0.000001 -0.000001 -0.000001 0.000001 -0.000001 -0.000001 0.000001 -0.000001 -0.000001 0.000001 -0.000001 0.000002 -0.000000 -0.000000 -0.000001 0.000001 0.000000 
